<svg width="57" height="56" viewBox="0 0 57 56" fill="none" xmlns="http://www.w3.org/2000/svg">
<circle cx="28.5" cy="28" r="28" fill="#04D361"/>
<g clip-path="url(#clip0_1314_562)">
<path d="M39.4687 18.0706C38.1851 16.775 36.6564 15.7479 34.9718 15.049C33.2871 14.3502 31.4803 13.9936 29.6565 14.0001C22.0142 14.0001 15.786 20.2266 15.779 27.8706C15.779 30.3188 16.4195 32.7006 17.6287 34.8093L15.667 42.0001L23.024 40.0716C25.0592 41.1792 27.3394 41.7597 29.6565 41.7603H29.6635C37.3075 41.7603 43.534 35.5338 43.541 27.8828C43.5427 26.0594 43.1837 24.2537 42.4845 22.5696C41.7853 20.8856 40.7615 19.3565 39.4687 18.0706ZM29.6565 39.4118C27.5897 39.4125 25.561 38.8564 23.7835 37.8018L23.3635 37.5498L18.999 38.6943L20.1645 34.4366L19.8915 33.9973C18.7362 32.1604 18.1251 30.0336 18.1292 27.8636C18.1292 21.5181 23.304 16.3416 29.6635 16.3416C31.1785 16.3389 32.6791 16.6361 34.0788 17.216C35.4784 17.796 36.7494 18.6473 37.8185 19.7208C38.8913 20.7902 39.7418 22.0613 40.3209 23.461C40.8999 24.8607 41.1962 26.3611 41.1925 27.8758C41.1855 34.2441 36.0107 39.4118 29.6565 39.4118ZM35.9827 30.7773C35.638 30.6041 33.9352 29.7658 33.615 29.6468C33.2965 29.5331 33.0637 29.4736 32.8362 29.8201C32.6035 30.1648 31.9385 30.9506 31.739 31.1763C31.5395 31.4091 31.333 31.4353 30.9865 31.2638C30.6417 31.0888 29.5235 30.7248 28.2005 29.5401C27.168 28.6213 26.4767 27.4838 26.2702 27.1391C26.0707 26.7926 26.251 26.6071 26.4242 26.4338C26.5765 26.2798 26.769 26.0278 26.9422 25.8283C27.1172 25.6288 27.175 25.4818 27.2887 25.2508C27.4025 25.0163 27.3482 24.8168 27.2625 24.6436C27.175 24.4703 26.4837 22.7606 26.1915 22.0711C25.9115 21.3903 25.6262 21.4848 25.4127 21.4761C25.2132 21.4638 24.9805 21.4638 24.7477 21.4638C24.572 21.4682 24.399 21.5089 24.2397 21.5832C24.0804 21.6576 23.9382 21.7641 23.822 21.8961C23.5035 22.2426 22.6127 23.0808 22.6127 24.7906C22.6127 26.5003 23.8552 28.1436 24.0302 28.3763C24.2017 28.6091 26.4697 32.1073 29.9505 33.6123C30.773 33.9711 31.4205 34.1828 31.9262 34.3438C32.7575 34.6098 33.5082 34.5696 34.1067 34.4838C34.7717 34.3823 36.156 33.6438 36.4482 32.8336C36.7352 32.0216 36.7352 31.3286 36.6477 31.1833C36.562 31.0363 36.3292 30.9506 35.9827 30.7773Z" fill="white"/>
</g>
<defs>
<clipPath id="clip0_1314_562">
<rect width="28" height="28" fill="white" transform="translate(15.667 14)"/>
</clipPath>
</defs>
</svg>
