<svg width="97" height="147" viewBox="0 0 97 147" fill="none" xmlns="http://www.w3.org/2000/svg">
<path d="M2.45866 104.199L1.47356 104.318L1.58548 105.304C2.93784 117.218 7.84586 126.927 16.3204 134.366L16.3236 134.369C24.8063 141.751 35.4723 145.415 48.2454 145.415C61.748 145.415 73.088 141.034 82.1946 132.25C91.2925 123.475 95.8592 112.826 95.8592 100.36C95.8592 91.7555 93.3957 84.359 88.4378 78.226C84.0469 72.7241 78.3152 68.9897 71.2819 67.0173C83.3976 59.7627 89.6061 50.1597 89.6061 38.208C89.6061 29.3352 86.2357 21.3888 79.572 14.4012C71.4611 5.83713 60.6993 1.58447 47.3927 1.58447C39.6215 1.58447 32.5583 3.06225 26.2211 6.03647C19.9498 8.94622 15.004 13.0044 11.4189 18.2191L11.4174 18.2213C7.90671 23.3572 5.31037 30.1914 3.5887 38.6722L3.38328 39.6841L4.40123 39.8571L28.9398 44.0258L29.9806 44.2026L30.1008 43.1537C30.7786 37.2378 32.6735 32.8704 35.6814 29.9214C38.7141 26.9483 42.3465 25.4702 46.6348 25.4702C51.0299 25.4702 54.4534 26.7867 57.0127 29.346C59.5693 31.9027 60.8885 35.356 60.8885 39.8186C60.8885 45.0533 59.0977 49.1905 55.5453 52.3301C52.0126 55.3898 46.8013 56.9112 39.7448 56.7255L38.8479 56.7019L38.7276 57.591L35.7905 79.2872L35.5865 80.7944L37.0511 80.3843C41.7356 79.0727 45.7142 78.4318 49.0034 78.4318C53.8944 78.4318 58.0198 80.2662 61.4365 83.9826C64.8264 87.6699 66.5731 92.7108 66.5731 99.2227C66.5731 106.114 64.7312 111.473 61.1485 115.414L61.1429 115.421C57.6023 119.381 53.2607 121.34 48.0559 121.34C43.1923 121.34 39.0849 119.699 35.6757 116.41C32.2864 113.139 30.1436 108.357 29.3416 101.941L29.218 100.952L28.2289 101.072L2.45866 104.199Z" stroke="url(#paint0_linear_1318_708)" stroke-opacity="0.75" stroke-width="2"/>
<defs>
<linearGradient id="paint0_linear_1318_708" x1="48.7191" y1="2.58447" x2="48.7191" y2="144.415" gradientUnits="userSpaceOnUse">
<stop stop-color="#71C4F5"/>
<stop offset="1" stop-color="#71C4F5" stop-opacity="0"/>
</linearGradient>
</defs>
</svg>
