<svg width="98" height="145" viewBox="0 0 98 145" fill="none" xmlns="http://www.w3.org/2000/svg">
<path d="M96.8594 117.503V116.503H95.8594H44.7765C45.9762 114.642 47.4296 112.733 49.1408 110.777C51.3791 108.291 56.6769 103.21 65.0805 95.5018C73.4857 87.7918 79.3488 81.8396 82.6241 77.6652C87.5297 71.4216 91.1232 65.4328 93.3783 59.6991C95.6996 53.8948 96.8594 47.8007 96.8594 41.4244C96.8594 30.1652 92.8344 20.71 84.7975 13.1267C76.733 5.51749 65.6926 1.76904 51.8037 1.76904C39.1213 1.76904 28.4742 5.00689 19.9307 11.5439C11.2999 18.1478 6.26569 28.967 4.6694 43.7805L4.56143 44.7824L5.56414 44.8827L32.0923 47.5355L33.1225 47.6385L33.1897 46.6054C33.689 38.9291 35.5536 33.661 38.5902 30.566C41.6521 27.4452 45.7971 25.8443 51.1405 25.8443C56.5634 25.8443 60.6697 27.3917 63.5957 30.3762L63.6027 30.3833L63.6097 30.3902C66.5841 33.3063 68.1417 37.5622 68.1417 43.3192C68.1417 48.4478 66.3948 53.6884 62.8177 59.0557C60.1744 62.926 52.9081 70.4258 40.8906 81.621C25.9741 95.4631 15.9065 106.658 10.7766 115.186C5.65106 123.643 2.56976 132.625 1.5429 142.124L1.42317 143.231H2.53711H95.8594H96.8594V142.231V117.503Z" stroke="url(#paint0_linear_1318_707)" stroke-opacity="0.75" stroke-width="2"/>
<defs>
<linearGradient id="paint0_linear_1318_707" x1="49.1982" y1="2.76904" x2="49.1982" y2="142.231" gradientUnits="userSpaceOnUse">
<stop stop-color="#71C4F5"/>
<stop offset="1" stop-color="#71C4F5" stop-opacity="0"/>
</linearGradient>
</defs>
</svg>
