<svg width="80" height="37" viewBox="0 0 80 37" fill="none" xmlns="http://www.w3.org/2000/svg">
<path d="M79.2067 28.2929C79.5972 28.6834 79.5972 29.3166 79.2067 29.7071L72.8427 36.0711C72.4522 36.4616 71.8191 36.4616 71.4285 36.0711C71.038 35.6806 71.038 35.0474 71.4285 34.6569L77.0853 29L71.4284 23.3432C71.0379 22.9527 71.0379 22.3195 71.4284 21.929C71.819 21.5385 72.4521 21.5385 72.8426 21.929L79.2067 28.2929ZM2.28586 0.382172C13.1867 14.2555 23.2717 21.1104 35.03 24.54C46.8641 27.9916 60.4545 28.0001 78.4995 28L78.4996 30C60.5452 30.0001 46.636 30.0085 34.47 26.46C22.2283 22.8894 11.813 15.7443 0.713245 1.61784L2.28586 0.382172Z" fill="url(#paint0_linear_1314_353)"/>
<defs>
<linearGradient id="paint0_linear_1314_353" x1="51.5001" y1="31.0007" x2="6.00012" y2="7.00074" gradientUnits="userSpaceOnUse">
<stop stop-color="#5BC2D9"/>
<stop offset="1" stop-color="#5BC2D9" stop-opacity="0"/>
</linearGradient>
</defs>
</svg>
