<svg width="24" height="24" viewBox="0 0 24 24" fill="none" xmlns="http://www.w3.org/2000/svg">
<path d="M5.00129 8H19.3893L12.1953 16.2215L5.00129 8ZM3.87179 8.9885L11.0658 17.2085C11.2066 17.3696 11.3802 17.4987 11.575 17.5872C11.7698 17.6757 11.9813 17.7215 12.1953 17.7215C12.4092 17.7215 12.6207 17.6757 12.8155 17.5872C13.0104 17.4987 13.184 17.3696 13.3248 17.2085L20.5188 8.9885C21.3678 8.018 20.6778 6.5 19.3893 6.5H5.00129C4.71292 6.49975 4.43059 6.58263 4.18812 6.73871C3.94564 6.89479 3.7533 7.11746 3.63411 7.38004C3.51493 7.64262 3.47396 7.934 3.51611 8.21927C3.55827 8.50454 3.68175 8.77161 3.87179 8.9885Z" fill="white"/>
</svg>
