<svg width="549" height="355" viewBox="0 0 549 355" fill="none" xmlns="http://www.w3.org/2000/svg">
<g filter="url(#filter0_b_1314_438)">
<rect width="548.844" height="354.442" rx="12.7209" fill="white" fill-opacity="0.01"/>
<rect x="0.5" y="0.5" width="547.844" height="353.442" rx="12.2209" stroke="white" stroke-opacity="0.25"/>
<path opacity="0.5" d="M48.709 243.139H27.709V305.139H523.209V55.1394L495.709 78.1394L429.209 110.639L355.209 142.639L279.209 180.139L200.209 255.139L124.209 276.139L48.709 243.139Z" fill="url(#paint0_radial_1314_438)"/>
<line x1="270" y1="302.558" x2="270" y2="26.5581" stroke="#71C4F5" stroke-opacity="0.25" stroke-width="2" stroke-linecap="round" stroke-dasharray="12 12"/>
<path opacity="0.5" d="M270 306L270 329" stroke="#71C4F5" stroke-width="1.5" stroke-linecap="round"/>
<path opacity="0.5" d="M25.4414 26L21.1113 33.5L29.7715 33.5L25.4414 26ZM24.6914 305C24.6914 305.414 25.0272 305.75 25.4414 305.75C25.8556 305.75 26.1914 305.414 26.1914 305L24.6914 305ZM24.6914 32.75L24.6914 305L26.1914 305L26.1914 32.75L24.6914 32.75Z" fill="#71C4F5"/>
<path opacity="0.5" d="M25.4414 304.419C25.0272 304.419 24.6914 304.754 24.6914 305.169C24.6914 305.583 25.0272 305.919 25.4414 305.919V304.419ZM521.558 305.169L514.058 300.839V309.499L521.558 305.169ZM25.4414 305.919H514.808V304.419H25.4414V305.919Z" fill="#71C4F5"/>
<path d="M84.7926 325.288V324.75H88.8314C89.4259 324.75 89.7231 324.453 89.7231 323.859V322.796C89.7231 322.298 89.5002 322.005 89.0543 321.918L86.235 321.341C85.2734 321.148 84.7926 320.506 84.7926 319.413V318.705C84.7926 317.367 85.4613 316.699 86.7989 316.699H89.9723L90.5624 317.158V317.695H86.7858C86.1913 317.695 85.8941 317.993 85.8941 318.587V319.479C85.8941 319.977 86.117 320.27 86.5628 320.357L89.3822 320.921C90.3438 321.113 90.8246 321.76 90.8246 322.862V323.741C90.8246 325.078 90.1559 325.747 88.8183 325.747H85.3826L84.7926 325.288ZM92.7926 325.747V316.699H98.6936V317.695H93.8941V320.502H98.3002V321.498H93.8941V324.75H98.6936V325.747H92.7926ZM100.527 325.747V316.699H101.983L105.012 323.124L108.028 316.699H109.484V325.747H108.382V318.351L105.524 324.436H104.488L101.629 318.351V325.747H100.527ZM114.998 325.747V316.699H116.454L119.483 323.124L122.499 316.699H123.954V325.747H122.853V318.351L119.994 324.436H118.958L116.1 318.351V325.747H114.998ZM126.318 325.747V316.699H127.42V325.747H126.318ZM129.776 325.747V316.699H130.996L135.756 324.042V316.699H136.857V325.747H135.638L130.877 318.403V325.747H129.776ZM139.214 325.747V316.699H140.315V320.502H144.931V316.699H146.033V325.747H144.931V321.498H140.315V325.747H139.214ZM147.478 325.511L150.441 316.699H152.251L155.215 325.511L155.057 325.747H154.152L153.405 323.465H149.287L148.54 325.747H147.635L147.478 325.511ZM149.615 322.469H153.077L151.504 317.695H151.189L149.615 322.469ZM156.262 325.288V324.75H160.301C160.895 324.75 161.193 324.453 161.193 323.859V322.796C161.193 322.298 160.97 322.005 160.524 321.918L157.705 321.341C156.743 321.148 156.262 320.506 156.262 319.413V318.705C156.262 317.367 156.931 316.699 158.268 316.699H161.442L162.032 317.158V317.695H158.255C157.661 317.695 157.364 317.993 157.364 318.587V319.479C157.364 319.977 157.587 320.27 158.032 320.357L160.852 320.921C161.813 321.113 162.294 321.76 162.294 322.862V323.741C162.294 325.078 161.625 325.747 160.288 325.747H156.852L156.262 325.288ZM167.412 325.747V316.699H171.7C173.038 316.699 173.707 317.367 173.707 318.705V320.41C173.707 321.747 173.038 322.416 171.7 322.416H168.514V325.747H167.412ZM168.514 321.419H171.714C172.308 321.419 172.605 321.122 172.605 320.528V318.587C172.605 317.993 172.308 317.695 171.714 317.695H168.514V321.419ZM174.229 325.511L177.193 316.699H179.002L181.966 325.511L181.809 325.747H180.904L180.156 323.465H176.039L175.291 325.747H174.387L174.229 325.511ZM176.367 322.469H179.829L178.255 317.695H177.94L176.367 322.469ZM177.285 315.61L178.989 313.722L179.619 314.338L177.835 316.148L177.285 315.61ZM183.276 323.741V318.705C183.276 317.367 183.945 316.699 185.282 316.699H189.242L189.832 317.158V317.695H185.269C184.675 317.695 184.377 317.993 184.377 318.587V323.859C184.377 324.453 184.675 324.75 185.269 324.75H188.993V321.498H186.764V320.502H190.095V325.747H185.282C183.945 325.747 183.276 325.078 183.276 323.741ZM192.192 325.747V316.699H193.293V325.747H192.192ZM195.649 325.747V316.699H196.869L201.629 324.042V316.699H202.73V325.747H201.511L196.751 318.403V325.747H195.649ZM204.169 325.511L207.133 316.699H208.943L211.906 325.511L211.749 325.747H210.844L210.097 323.465H205.979L205.232 325.747H204.327L204.169 325.511ZM206.307 322.469H209.769L208.195 317.695H207.88L206.307 322.469ZM212.954 325.288V324.75H216.993C217.587 324.75 217.884 324.453 217.884 323.859V322.796C217.884 322.298 217.661 322.005 217.215 321.918L214.396 321.341C213.434 321.148 212.954 320.506 212.954 319.413V318.705C212.954 317.367 213.622 316.699 214.96 316.699H218.133L218.723 317.158V317.695H214.947C214.352 317.695 214.055 317.993 214.055 318.587V319.479C214.055 319.977 214.278 320.27 214.724 320.357L217.543 320.921C218.505 321.113 218.986 321.76 218.986 322.862V323.741C218.986 325.078 218.317 325.747 216.979 325.747H213.544L212.954 325.288Z" fill="#C5C5C5"/>
<path d="M324.085 323.741V318.705C324.085 317.367 324.754 316.699 326.091 316.699H329.789L330.379 317.158V317.695H326.078C325.484 317.695 325.186 317.993 325.186 318.587V323.859C325.186 324.453 325.484 324.75 326.078 324.75H330.379V325.288L329.789 325.747H326.091C324.754 325.747 324.085 325.078 324.085 323.741ZM332.089 323.741V318.705C332.089 317.367 332.757 316.699 334.095 316.699H337.163C338.501 316.699 339.17 317.367 339.17 318.705V323.741C339.17 325.078 338.501 325.747 337.163 325.747H334.095C332.757 325.747 332.089 325.078 332.089 323.741ZM333.19 323.859C333.19 324.453 333.487 324.75 334.082 324.75H337.177C337.771 324.75 338.068 324.453 338.068 323.859V318.587C338.068 317.993 337.771 317.695 337.177 317.695H334.082C333.487 317.695 333.19 317.993 333.19 318.587V323.859ZM341.402 325.747V316.699H342.857L345.886 323.124L348.902 316.699H350.358V325.747H349.256V318.351L346.398 324.436H345.362L342.503 318.351V325.747H341.402ZM355.872 325.747V316.699H357.328L360.357 323.124L363.373 316.699H364.828V325.747H363.727V318.351L360.868 324.436H359.832L356.974 318.351V325.747H355.872ZM367.193 325.747V316.699H368.294V325.747H367.193ZM370.65 325.747V316.699H371.87L376.63 324.042V316.699H377.731V325.747H376.512L371.752 318.403V325.747H370.65ZM380.088 325.747V316.699H381.19V320.502H385.805V316.699H386.907V325.747H385.805V321.498H381.19V325.747H380.088ZM388.352 325.511L391.316 316.699H393.125L396.089 325.511L395.931 325.747H395.027L394.279 323.465H390.162L389.414 325.747H388.509L388.352 325.511ZM390.489 322.469H393.951L392.378 317.695H392.063L390.489 322.469ZM397.136 325.288V324.75H401.175C401.77 324.75 402.067 324.453 402.067 323.859V322.796C402.067 322.298 401.844 322.005 401.398 321.918L398.579 321.341C397.617 321.148 397.136 320.506 397.136 319.413V318.705C397.136 317.367 397.805 316.699 399.143 316.699H402.316L402.906 317.158V317.695H399.129C398.535 317.695 398.238 317.993 398.238 318.587V319.479C398.238 319.977 398.461 320.27 398.907 320.357L401.726 320.921C402.688 321.113 403.168 321.76 403.168 322.862V323.741C403.168 325.078 402.5 325.747 401.162 325.747H397.726L397.136 325.288ZM408.287 325.747V316.699H412.575C413.912 316.699 414.581 317.367 414.581 318.705V320.41C414.581 321.747 413.912 322.416 412.575 322.416H409.388V325.747H408.287ZM409.388 321.419H412.588C413.182 321.419 413.479 321.122 413.479 320.528V318.587C413.479 317.993 413.182 317.695 412.588 317.695H409.388V321.419ZM415.103 325.511L418.067 316.699H419.877L422.84 325.511L422.683 325.747H421.778L421.031 323.465H416.913L416.166 325.747H415.261L415.103 325.511ZM417.241 322.469H420.703L419.129 317.695H418.814L417.241 322.469ZM418.159 315.61L419.863 313.722L420.493 314.338L418.71 316.148L418.159 315.61ZM424.15 323.741V318.705C424.15 317.367 424.819 316.699 426.156 316.699H430.116L430.707 317.158V317.695H426.143C425.549 317.695 425.251 317.993 425.251 318.587V323.859C425.251 324.453 425.549 324.75 426.143 324.75H429.867V321.498H427.638V320.502H430.969V325.747H426.156C424.819 325.747 424.15 325.078 424.15 323.741ZM433.066 325.747V316.699H434.167V325.747H433.066ZM436.524 325.747V316.699H437.743L442.503 324.042V316.699H443.605V325.747H442.385L437.625 318.403V325.747H436.524ZM445.044 325.511L448.007 316.699H449.817L452.78 325.511L452.623 325.747H451.718L450.971 323.465H446.853L446.106 325.747H445.201L445.044 325.511ZM447.181 322.469H450.643L449.069 317.695H448.755L447.181 322.469ZM453.828 325.288V324.75H457.867C458.461 324.75 458.758 324.453 458.758 323.859V322.796C458.758 322.298 458.535 322.005 458.09 321.918L455.27 321.341C454.309 321.148 453.828 320.506 453.828 319.413V318.705C453.828 317.367 454.497 316.699 455.834 316.699H459.008L459.598 317.158V317.695H455.821C455.227 317.695 454.929 317.993 454.929 318.587V319.479C454.929 319.977 455.152 320.27 455.598 320.357L458.417 320.921C459.379 321.113 459.86 321.76 459.86 322.862V323.741C459.86 325.078 459.191 325.747 457.854 325.747H454.418L453.828 325.288Z" fill="#C5C5C5"/>
<rect x="32.042" y="192.292" width="34.9843" height="23.1562" rx="4.02035" stroke="#5BC2D9" stroke-width="1.5"/>
<path d="M41.073 206.912V206.374H44.8496C45.4441 206.374 45.7413 206.077 45.7413 205.482V204.014C45.7413 203.419 45.4441 203.122 44.8496 203.122H42.0434V202.125H44.8496C45.4441 202.125 45.7413 201.828 45.7413 201.234V200.211C45.7413 199.616 45.4441 199.319 44.8496 199.319H41.2042V198.781L41.7943 198.322H44.8365C46.1741 198.322 46.8428 198.991 46.8428 200.329V201.286C46.8428 201.636 46.7336 201.92 46.515 202.138L46.0561 202.597L46.515 203.056C46.7336 203.275 46.8428 203.559 46.8428 203.909V205.364C46.8428 206.702 46.1741 207.371 44.8365 207.371H41.6631L41.073 206.912ZM48.2083 202.388V199.621C48.2083 198.755 48.6454 198.322 49.5196 198.322H50.5818C51.4472 198.322 51.88 198.755 51.88 199.621V202.388C51.88 203.262 51.4472 203.699 50.5818 203.699H49.5196C48.6454 203.699 48.2083 203.262 48.2083 202.388ZM49.0475 202.492C49.0475 202.79 49.1961 202.938 49.4934 202.938H50.5949C50.8921 202.938 51.0407 202.79 51.0407 202.492V199.529C51.0407 199.232 50.8921 199.083 50.5949 199.083H49.4934C49.1961 199.083 49.0475 199.232 49.0475 199.529V202.492ZM50.7653 206.977L55.0927 198.322L55.8795 198.716L51.5521 207.371L50.7653 206.977ZM54.7649 206.059V203.292C54.7649 202.427 55.202 201.994 56.0762 201.994H57.1384C58.0038 201.994 58.4366 202.427 58.4366 203.292V206.059C58.4366 206.933 58.0038 207.371 57.1384 207.371H56.0762C55.202 207.371 54.7649 206.933 54.7649 206.059ZM55.6041 206.164C55.6041 206.461 55.7527 206.61 56.05 206.61H57.1515C57.4487 206.61 57.5973 206.461 57.5973 206.164V203.201C57.5973 202.903 57.4487 202.755 57.1515 202.755H56.05C55.7527 202.755 55.6041 202.903 55.6041 203.201V206.164Z" fill="white"/>
<rect x="107.079" y="223.618" width="34.9843" height="23.1562" rx="4.02035" stroke="#5BC2D9" stroke-width="1.5"/>
<path d="M116.346 238.697V237.7H118.589V230.645H116.805V230.107L117.395 229.648H119.69V237.7H121.723V238.697H116.346ZM123.245 233.714V230.947C123.245 230.081 123.682 229.648 124.557 229.648H125.619C126.484 229.648 126.917 230.081 126.917 230.947V233.714C126.917 234.588 126.484 235.025 125.619 235.025H124.557C123.682 235.025 123.245 234.588 123.245 233.714ZM124.085 233.818C124.085 234.116 124.233 234.264 124.53 234.264H125.632C125.929 234.264 126.078 234.116 126.078 233.818V230.855C126.078 230.558 125.929 230.409 125.632 230.409H124.53C124.233 230.409 124.085 230.558 124.085 230.855V233.818ZM125.802 238.303L130.13 229.648L130.917 230.042L126.589 238.697L125.802 238.303ZM129.802 237.385V234.618C129.802 233.753 130.239 233.32 131.113 233.32H132.175C133.041 233.32 133.474 233.753 133.474 234.618V237.385C133.474 238.259 133.041 238.697 132.175 238.697H131.113C130.239 238.697 129.802 238.259 129.802 237.385ZM130.641 237.49C130.641 237.787 130.79 237.936 131.087 237.936H132.189C132.486 237.936 132.634 237.787 132.634 237.49V234.527C132.634 234.229 132.486 234.081 132.189 234.081H131.087C130.79 234.081 130.641 234.229 130.641 234.527V237.49Z" fill="white"/>
<rect x="182.844" y="204.677" width="34.9843" height="23.1562" rx="4.02035" stroke="#5BC2D9" stroke-width="1.5"/>
<path d="M191.744 219.755V217.002C191.744 215.9 192.224 215.253 193.186 215.061L195.874 214.523C196.32 214.436 196.543 214.143 196.543 213.645V212.596C196.543 212.001 196.246 211.704 195.651 211.704H192.006V211.166L192.596 210.707H195.638C196.976 210.707 197.645 211.376 197.645 212.714V213.566C197.645 214.667 197.164 215.314 196.202 215.507L193.514 216.044C193.068 216.132 192.845 216.425 192.845 216.923V218.759H197.645V219.755H191.744ZM199.01 214.772V212.005C199.01 211.14 199.447 210.707 200.321 210.707H201.384C202.249 210.707 202.682 211.14 202.682 212.005V214.772C202.682 215.647 202.249 216.084 201.384 216.084H200.321C199.447 216.084 199.01 215.647 199.01 214.772ZM199.849 214.877C199.849 215.174 199.998 215.323 200.295 215.323H201.397C201.694 215.323 201.842 215.174 201.842 214.877V211.914C201.842 211.616 201.694 211.468 201.397 211.468H200.295C199.998 211.468 199.849 211.616 199.849 211.914V214.877ZM201.567 219.362L205.894 210.707L206.681 211.101L202.354 219.755L201.567 219.362ZM205.567 218.444V215.677C205.567 214.812 206.004 214.379 206.878 214.379H207.94C208.806 214.379 209.238 214.812 209.238 215.677V218.444C209.238 219.318 208.806 219.755 207.94 219.755H206.878C206.004 219.755 205.567 219.318 205.567 218.444ZM206.406 218.549C206.406 218.846 206.554 218.995 206.852 218.995H207.953C208.25 218.995 208.399 218.846 208.399 218.549V215.585C208.399 215.288 208.25 215.14 207.953 215.14H206.852C206.554 215.14 206.406 215.288 206.406 215.585V218.549Z" fill="white"/>
<rect x="257.152" y="128.184" width="42.9843" height="23.1562" rx="4.02035" stroke="#5BC2D9" stroke-width="1.5"/>
<path d="M266.262 143.262V140.508C266.262 139.406 266.743 138.76 267.704 138.567L270.392 138.03C270.838 137.942 271.061 137.649 271.061 137.151V136.102C271.061 135.507 270.764 135.21 270.169 135.21H266.524V134.673L267.114 134.214H270.156C271.494 134.214 272.163 134.882 272.163 136.22V137.072C272.163 138.174 271.682 138.821 270.72 139.013L268.032 139.551C267.586 139.638 267.363 139.931 267.363 140.429V142.265H272.163V143.262H266.262ZM273.843 141.255V136.22C273.843 134.882 274.512 134.214 275.849 134.214H277.737C279.075 134.214 279.744 134.882 279.744 136.22V141.255C279.744 142.593 279.075 143.262 277.737 143.262H275.849C274.512 143.262 273.843 142.593 273.843 141.255ZM274.944 141.373C274.944 141.968 275.242 142.265 275.836 142.265H277.751C278.345 142.265 278.642 141.968 278.642 141.373V136.102C278.642 135.507 278.345 135.21 277.751 135.21H275.836C275.242 135.21 274.944 135.507 274.944 136.102V141.373ZM281.109 138.279V135.512C281.109 134.646 281.546 134.214 282.42 134.214H283.483C284.348 134.214 284.781 134.646 284.781 135.512V138.279C284.781 139.153 284.348 139.59 283.483 139.59H282.42C281.546 139.59 281.109 139.153 281.109 138.279ZM281.948 138.384C281.948 138.681 282.097 138.829 282.394 138.829H283.496C283.793 138.829 283.942 138.681 283.942 138.384V135.42C283.942 135.123 283.793 134.974 283.496 134.974H282.394C282.097 134.974 281.948 135.123 281.948 135.42V138.384ZM283.666 142.868L287.994 134.214L288.78 134.607L284.453 143.262L283.666 142.868ZM287.666 141.95V139.184C287.666 138.318 288.103 137.885 288.977 137.885H290.039C290.905 137.885 291.337 138.318 291.337 139.184V141.95C291.337 142.825 290.905 143.262 290.039 143.262H288.977C288.103 143.262 287.666 142.825 287.666 141.95ZM288.505 142.055C288.505 142.353 288.654 142.501 288.951 142.501H290.052C290.35 142.501 290.498 142.353 290.498 142.055V139.092C290.498 138.794 290.35 138.646 290.052 138.646H288.951C288.654 138.646 288.505 138.794 288.505 139.092V142.055Z" fill="white"/>
<rect x="333.646" y="90.301" width="42.9843" height="23.1562" rx="4.02035" stroke="#5BC2D9" stroke-width="1.5"/>
<path d="M342.886 104.92V104.383H346.663C347.257 104.383 347.554 104.085 347.554 103.491V102.022C347.554 101.428 347.257 101.13 346.663 101.13H343.856V100.134H346.663C347.257 100.134 347.554 99.8366 347.554 99.2422V98.2193C347.554 97.6249 347.257 97.3276 346.663 97.3276H343.017V96.79L343.607 96.331H346.65C347.987 96.331 348.656 96.9998 348.656 98.3374V99.2946C348.656 99.6443 348.547 99.9284 348.328 100.147L347.869 100.606L348.328 101.065C348.547 101.283 348.656 101.568 348.656 101.917V103.373C348.656 104.71 347.987 105.379 346.65 105.379H343.476L342.886 104.92ZM350.205 104.92V104.383H354.244C354.838 104.383 355.135 104.085 355.135 103.491V101.891C355.135 101.297 354.838 100.999 354.244 100.999H350.336V96.331H355.844V97.3276H351.437V100.003H354.231C355.568 100.003 356.237 100.672 356.237 102.009V103.373C356.237 104.71 355.568 105.379 354.231 105.379H350.795L350.205 104.92ZM357.602 100.396V97.6292C357.602 96.7638 358.039 96.331 358.914 96.331H359.976C360.841 96.331 361.274 96.7638 361.274 97.6292V100.396C361.274 101.27 360.841 101.707 359.976 101.707H358.914C358.039 101.707 357.602 101.27 357.602 100.396ZM358.442 100.501C358.442 100.798 358.59 100.947 358.887 100.947H359.989C360.286 100.947 360.435 100.798 360.435 100.501V97.5375C360.435 97.2402 360.286 97.0916 359.989 97.0916H358.887C358.59 97.0916 358.442 97.2402 358.442 97.5375V100.501ZM360.159 104.986L364.487 96.331L365.274 96.7244L360.946 105.379L360.159 104.986ZM364.159 104.068V101.301C364.159 100.435 364.596 100.003 365.47 100.003H366.532C367.398 100.003 367.831 100.435 367.831 101.301V104.068C367.831 104.942 367.398 105.379 366.532 105.379H365.47C364.596 105.379 364.159 104.942 364.159 104.068ZM364.998 104.173C364.998 104.47 365.147 104.619 365.444 104.619H366.546C366.843 104.619 366.991 104.47 366.991 104.173V101.209C366.991 100.912 366.843 100.763 366.546 100.763H365.444C365.147 100.763 364.998 100.912 364.998 101.209V104.173Z" fill="white"/>
<rect x="407.226" y="58.2463" width="42.9843" height="23.1562" rx="4.02035" stroke="#5BC2D9" stroke-width="1.5"/>
<path d="M416.204 72.8655V72.3279H420.243C420.837 72.3279 421.134 72.0306 421.134 71.4362V69.8364C421.134 69.2419 420.837 68.9447 420.243 68.9447H416.335V64.2764H421.843V65.273H417.436V67.948H420.23C421.567 67.948 422.236 68.6168 422.236 69.9544V71.3181C422.236 72.6557 421.567 73.3245 420.23 73.3245H416.794L416.204 72.8655ZM423.916 71.3181V66.2827C423.916 64.9451 424.585 64.2764 425.922 64.2764H427.811C429.148 64.2764 429.817 64.9451 429.817 66.2827V71.3181C429.817 72.6557 429.148 73.3245 427.811 73.3245H425.922C424.585 73.3245 423.916 72.6557 423.916 71.3181ZM425.018 71.4362C425.018 72.0306 425.315 72.3279 425.909 72.3279H427.824C428.418 72.3279 428.715 72.0306 428.715 71.4362V66.1647C428.715 65.5702 428.418 65.273 427.824 65.273H425.909C425.315 65.273 425.018 65.5702 425.018 66.1647V71.4362ZM431.182 68.3414V65.5746C431.182 64.7091 431.619 64.2764 432.494 64.2764H433.556C434.421 64.2764 434.854 64.7091 434.854 65.5746V68.3414C434.854 69.2157 434.421 69.6528 433.556 69.6528H432.494C431.619 69.6528 431.182 69.2157 431.182 68.3414ZM432.022 68.4464C432.022 68.7436 432.17 68.8922 432.467 68.8922H433.569C433.866 68.8922 434.015 68.7436 434.015 68.4464V65.4828C434.015 65.1855 433.866 65.0369 433.569 65.0369H432.467C432.17 65.0369 432.022 65.1855 432.022 65.4828V68.4464ZM433.739 72.9311L438.067 64.2764L438.854 64.6697L434.526 73.3245L433.739 72.9311ZM437.739 72.0131V69.2463C437.739 68.3808 438.176 67.948 439.05 67.948H440.112C440.978 67.948 441.411 68.3808 441.411 69.2463V72.0131C441.411 72.8874 440.978 73.3245 440.112 73.3245H439.05C438.176 73.3245 437.739 72.8874 437.739 72.0131ZM438.578 72.118C438.578 72.4153 438.727 72.5639 439.024 72.5639H440.126C440.423 72.5639 440.571 72.4153 440.571 72.118V69.1545C440.571 68.8572 440.423 68.7086 440.126 68.7086H439.024C438.727 68.7086 438.578 68.8572 438.578 69.1545V72.118Z" fill="white"/>
<rect x="473.52" y="26.1919" width="41.9843" height="24.1562" rx="4.02035" stroke="#5BC2D9" stroke-width="1.5"/>
<path d="M485.077 42.27V34.108C484.778 34.36 484.33 34.6307 483.733 34.92V34.43C484.078 34.1314 484.377 33.828 484.629 33.52C484.881 33.212 485.086 32.8994 485.245 32.582H485.497C485.655 32.8994 485.861 33.212 486.113 33.52C486.365 33.828 486.663 34.1314 487.009 34.43V34.92C486.719 34.78 486.463 34.6447 486.239 34.514C486.015 34.374 485.823 34.2387 485.665 34.108V42.27H485.077ZM492.077 42.27V34.108C491.778 34.36 491.33 34.6307 490.733 34.92V34.43C491.078 34.1314 491.377 33.828 491.629 33.52C491.881 33.212 492.086 32.8994 492.245 32.582H492.497C492.655 32.8994 492.861 33.212 493.113 33.52C493.365 33.828 493.663 34.1314 494.009 34.43V34.92C493.719 34.78 493.463 34.6447 493.239 34.514C493.015 34.374 492.823 34.2387 492.665 34.108V42.27H492.077ZM496.395 37.287V34.5201C496.395 33.6546 496.832 33.2219 497.707 33.2219H498.769C499.634 33.2219 500.067 33.6546 500.067 34.5201V37.287C500.067 38.1612 499.634 38.5983 498.769 38.5983H497.707C496.832 38.5983 496.395 38.1612 496.395 37.287ZM497.235 37.3919C497.235 37.6891 497.383 37.8378 497.68 37.8378H498.782C499.079 37.8378 499.228 37.6891 499.228 37.3919V34.4283C499.228 34.1311 499.079 33.9825 498.782 33.9825H497.68C497.383 33.9825 497.235 34.1311 497.235 34.4283V37.3919ZM498.952 41.8766L503.28 33.2219L504.066 33.6153L499.739 42.27L498.952 41.8766ZM502.952 40.9587V38.1918C502.952 37.3263 503.389 36.8936 504.263 36.8936H505.325C506.191 36.8936 506.624 37.3263 506.624 38.1918V40.9587C506.624 41.8329 506.191 42.27 505.325 42.27H504.263C503.389 42.27 502.952 41.8329 502.952 40.9587ZM503.791 41.0636C503.791 41.3608 503.94 41.5095 504.237 41.5095H505.338C505.636 41.5095 505.784 41.3608 505.784 41.0636V38.1C505.784 37.8028 505.636 37.6542 505.338 37.6542H504.237C503.94 37.6542 503.791 37.8028 503.791 38.1V41.0636Z" fill="white"/>
<path d="M27.6504 243.267H49.87L124.178 276.05L200.308 255.287L278.623 180.615L355.845 142.004L428.696 110.678L495.719 78.2589L523.402 55.3108" stroke="url(#paint1_linear_1314_438)" stroke-width="1.45702"/>
<circle cx="50.209" cy="243.139" r="4" fill="#F7CC6A"/>
<circle cx="124.209" cy="276.139" r="4" fill="#F7CC6A"/>
<circle cx="200.209" cy="254.139" r="4" fill="#F7CC6A"/>
<circle cx="278.209" cy="181.139" r="4" fill="#F7CC6A"/>
<circle cx="355.209" cy="142.139" r="4" fill="#F7CC6A"/>
<circle cx="429.209" cy="110.139" r="4" fill="#F7CC6A"/>
<circle cx="495.209" cy="78.1394" r="4" fill="#F7CC6A"/>
</g>
<defs>
<filter id="filter0_b_1314_438" x="-14.2" y="-14.2" width="577.244" height="382.842" filterUnits="userSpaceOnUse" color-interpolation-filters="sRGB">
<feFlood flood-opacity="0" result="BackgroundImageFix"/>
<feGaussianBlur in="BackgroundImageFix" stdDeviation="7.1"/>
<feComposite in2="SourceAlpha" operator="in" result="effect1_backgroundBlur_1314_438"/>
<feBlend mode="normal" in="SourceGraphic" in2="effect1_backgroundBlur_1314_438" result="shape"/>
</filter>
<radialGradient id="paint0_radial_1314_438" cx="0" cy="0" r="1" gradientUnits="userSpaceOnUse" gradientTransform="translate(245 146.5) rotate(78.1888) scale(190.534 295.71)">
<stop stop-color="#71C4F5" stop-opacity="0.69"/>
<stop offset="0.897465" stop-color="#71C4F5" stop-opacity="0"/>
</radialGradient>
<linearGradient id="paint1_linear_1314_438" x1="27.209" y1="243.639" x2="523.209" y2="60.1393" gradientUnits="userSpaceOnUse">
<stop stop-color="#71C4F5" stop-opacity="0"/>
<stop offset="0.0537072" stop-color="#71C4F5"/>
<stop offset="0.9409" stop-color="#71C4F5"/>
<stop offset="1" stop-color="#71C4F5" stop-opacity="0"/>
</linearGradient>
</defs>
</svg>
