<svg width="16" height="16" viewBox="0 0 16 16" fill="none" xmlns="http://www.w3.org/2000/svg">
<rect width="16" height="16" rx="1.536" fill="url(#paint0_linear_15_69)"/>
<rect x="9.28577" y="2.88" width="0.989136" height="10.5372" rx="0.494568" transform="rotate(20 9.28577 2.88)" fill="url(#paint1_linear_15_69)"/>
<path fill-rule="evenodd" clip-rule="evenodd" d="M5.4528 5.78572C5.64594 5.97887 5.64594 6.29201 5.4528 6.48515L3.81705 8.1209L5.48807 9.79192C5.68121 9.98506 5.68121 10.2982 5.48807 10.4913C5.29493 10.6845 4.98178 10.6845 4.78864 10.4913L2.80701 8.50971C2.79748 8.50018 2.78841 8.49035 2.77982 8.48026C2.77613 8.47679 2.77248 8.47325 2.76888 8.46964C2.57574 8.2765 2.57574 7.96336 2.76888 7.77022L4.75337 5.78572C4.94651 5.59258 5.25966 5.59258 5.4528 5.78572Z" fill="url(#paint2_linear_15_69)"/>
<path fill-rule="evenodd" clip-rule="evenodd" d="M10.5194 5.78572C10.3263 5.97887 10.3263 6.29201 10.5194 6.48515L12.1551 8.12087L10.4841 9.79192C10.2909 9.98506 10.2909 10.2982 10.4841 10.4913C10.6772 10.6845 10.9904 10.6845 11.1835 10.4913L13.1651 8.50972C13.1746 8.50027 13.1836 8.49053 13.1921 8.48054C13.1959 8.47698 13.1996 8.47335 13.2033 8.46964C13.3965 8.2765 13.3965 7.96336 13.2033 7.77022L11.2188 5.78572C11.0257 5.59258 10.7126 5.59258 10.5194 5.78572Z" fill="url(#paint3_linear_15_69)"/>
<defs>
<linearGradient id="paint0_linear_15_69" x1="8" y1="0" x2="8" y2="16" gradientUnits="userSpaceOnUse">
<stop stop-color="#03030F"/>
<stop offset="1" stop-color="#1B2536"/>
</linearGradient>
<linearGradient id="paint1_linear_15_69" x1="9.78033" y1="2.88" x2="9.78033" y2="13.4172" gradientUnits="userSpaceOnUse">
<stop stop-color="#3183F5"/>
<stop offset="1" stop-color="#71C4F5"/>
</linearGradient>
<linearGradient id="paint2_linear_15_69" x1="4.12847" y1="5.64087" x2="4.12847" y2="10.6362" gradientUnits="userSpaceOnUse">
<stop stop-color="#3183F5"/>
<stop offset="1" stop-color="#71C4F5"/>
</linearGradient>
<linearGradient id="paint3_linear_15_69" x1="11.8437" y1="5.64087" x2="11.8437" y2="10.6362" gradientUnits="userSpaceOnUse">
<stop stop-color="#3183F5"/>
<stop offset="1" stop-color="#71C4F5"/>
</linearGradient>
</defs>
</svg>
