<svg width="192" height="192" viewBox="0 0 192 192" fill="none" xmlns="http://www.w3.org/2000/svg">
<rect width="192" height="192" rx="18.432" fill="url(#paint0_linear_17_118)"/>
<rect x="111.429" y="34.5601" width="11.8696" height="126.446" rx="5.93482" transform="rotate(20 111.429 34.5601)" fill="url(#paint1_linear_17_118)"/>
<path fill-rule="evenodd" clip-rule="evenodd" d="M65.4332 69.4293C67.7509 71.747 67.7509 75.5047 65.4332 77.8224L45.8043 97.4514L65.8565 117.504C68.1742 119.821 68.1742 123.579 65.8565 125.897C63.5388 128.214 59.7811 128.214 57.4634 125.897L33.6838 102.117C33.5694 102.003 33.4606 101.885 33.3575 101.764C33.3132 101.722 33.2695 101.68 33.2262 101.636C30.9085 99.3186 30.9085 95.5609 33.2262 93.2432L57.0401 69.4293C59.3578 67.1116 63.1156 67.1116 65.4332 69.4293Z" fill="url(#paint2_linear_17_118)"/>
<path fill-rule="evenodd" clip-rule="evenodd" d="M126.233 69.4294C123.915 71.7471 123.915 75.5048 126.233 77.8225L145.862 97.4512L125.809 117.504C123.491 119.822 123.491 123.579 125.809 125.897C128.127 128.215 131.884 128.215 134.202 125.897L157.982 102.117C158.095 102.004 158.203 101.887 158.305 101.767C158.351 101.724 158.395 101.681 158.44 101.636C160.758 99.3188 160.758 95.561 158.44 93.2434L134.626 69.4294C132.308 67.1117 128.551 67.1117 126.233 69.4294Z" fill="url(#paint3_linear_17_118)"/>
<defs>
<linearGradient id="paint0_linear_17_118" x1="96" y1="0" x2="96" y2="192" gradientUnits="userSpaceOnUse">
<stop stop-color="#03030F"/>
<stop offset="1" stop-color="#1B2536"/>
</linearGradient>
<linearGradient id="paint1_linear_17_118" x1="117.364" y1="34.5601" x2="117.364" y2="161.006" gradientUnits="userSpaceOnUse">
<stop stop-color="#3183F5"/>
<stop offset="1" stop-color="#71C4F5"/>
</linearGradient>
<linearGradient id="paint2_linear_17_118" x1="49.5413" y1="67.691" x2="49.5413" y2="127.635" gradientUnits="userSpaceOnUse">
<stop stop-color="#3183F5"/>
<stop offset="1" stop-color="#71C4F5"/>
</linearGradient>
<linearGradient id="paint3_linear_17_118" x1="142.124" y1="67.6912" x2="142.124" y2="127.635" gradientUnits="userSpaceOnUse">
<stop stop-color="#3183F5"/>
<stop offset="1" stop-color="#71C4F5"/>
</linearGradient>
</defs>
</svg>
